<svg xmlns="http://www.w3.org/2000/svg" fill="none" viewBox="0 0 73 32">
    <path fill="#fff"
          d="M34.6409 15.0841v6.8627h-2.2528V5h5.9723c1.5135 0 2.8042.48776 3.8602 1.46328 1.0795.97552 1.6192 2.16656 1.6192 3.57312 0 1.4406-.5397 2.6316-1.6192 3.5958-1.0443.9642-2.3349 1.4406-3.8602 1.4406h-3.7195zm0-7.99694V12.997h3.7664c.8917 0 1.6426-.2949 2.2293-.8734.5984-.5785.9035-1.2818.9035-2.0759 0-.78264-.3051-1.47457-.9035-2.05308-.5867-.60119-1.3259-.89612-2.2293-.89612h-3.7664zM49.7298 9.96838c1.6661 0 2.9802.43102 3.9424 1.29312.9621.8621 1.4432 2.0418 1.4432 3.5391v7.1463h-2.1472v-1.6108h-.0939c-.9269 1.3272-2.1706 1.9851-3.7194 1.9851-1.3259 0-2.4288-.3743-3.3205-1.1343-.8918-.76-1.3376-1.7015-1.3376-2.8359 0-1.2023.4693-2.1552 1.408-2.8585.9386-.7146 2.1941-1.0662 3.7546-1.0662 1.3376 0 2.4405.2382 3.2971.7146v-.4991c0-.76-.3051-1.3952-.927-1.9284-.6218-.5331-1.3493-.794-2.1824-.794-1.2554 0-2.2528.5105-2.9802 1.5427l-1.9829-1.2024c1.0912-1.5313 2.7104-2.29132 4.8458-2.29132m-2.9099 8.41672c0 .5671.2465 1.0435.751 1.4179.4928.3743 1.0794.5671 1.7482.5671q1.4256 0 2.5344-1.0209c.7392-.6805 1.1147-1.4746 1.1147-2.3934-.704-.5331-1.6779-.8053-2.9333-.8053-.9152 0-1.6779.2155-2.288.6352-.6219.4424-.927.9755-.927 1.5994M67.365 10.3428 59.8557 27.04h-2.3232l2.7925-5.8417-4.9514-10.8555h2.4523l3.5669 8.3259h.0469l3.473-8.3259z"/>
    <path fill="#4285f4"
          d="M25.6803 14.9367c0-.7101-.0657-1.3895-.1878-2.0429h-9.4429v3.7433l5.4384.0011c-.2206 1.2455-.9305 2.3072-2.0181 3.015v2.4286h3.2372c1.8902-1.6912 2.9732-4.1913 2.9732-7.1451"/>
    <path fill="#34a853"
          d="M19.471 19.6532c-.9011.5876-2.0615.9313-3.419.9313-2.6224 0-4.8471-1.7083-5.6437-4.011H7.06897v2.5046c1.65439 3.1738 5.05473 5.3517 8.98303 5.3517 2.715 0 4.996-.8632 6.6562-2.3492z"/>
    <path fill="#fabb05"
          d="M10.0937 14.7156c0-.6466.1115-1.2716.3145-1.8592v-2.5046H7.0689C6.38485 11.6642 6 13.1456 6 14.7156c0 1.5699.38602 3.0513 1.0689 4.3637l3.3393-2.5046c-.203-.5876-.3145-1.2126-.3145-1.8591"/>
    <path fill="#e94235"
          d="M16.052 8.84536c1.4819 0 2.8089.49343 3.8567 1.45764l2.8688-2.77119C21.0351 5.96304 18.7635 5 16.052 5c-3.9272 0-7.32864 2.1779-8.98303 5.3517l3.33933 2.5046c.7966-2.3026 3.0213-4.01094 5.6437-4.01094"/>
</svg>
