<svg xmlns="http://www.w3.org/2000/svg" fill="none" viewBox="0 0 64 32"><path fill="#fff" d="M15.8276 7.83702c.6122-.76371 1.0277-1.78915.9181-2.83702-.8962.04444-1.9898.58968-2.623 1.35398-.5685.65452-1.0717 1.72289-.9405 2.72683 1.006.08704 2.0111-.50151 2.6454-1.24379M16.7344 9.27693c-1.461-.08679-2.7032.82697-3.4009.82697-.698 0-1.7664-.78323-2.922-.76212-1.50404.02203-2.89961.87012-3.66284 2.21912-1.56985 2.6985-.41429 6.7014 1.11231 8.8991.74134 1.0874 1.63479 2.2846 2.81203 2.2416 1.1123-.0435 1.5483-.7183 2.9004-.7183 1.351 0 1.7438.7183 2.9212.6965 1.2211-.0218 1.9844-1.0878 2.7258-2.1762.8504-1.2395 1.1986-2.4363 1.2205-2.502-.0219-.0218-2.3545-.9143-2.3762-3.5904-.022-2.2407 1.8314-3.3065 1.9186-3.3726-1.0466-1.54385-2.6819-1.71793-3.2489-1.76167M29.4556 6.24439c3.1755 0 5.3866 2.18303 5.3866 5.36141 0 3.1896-2.2566 5.384-5.4662 5.384h-3.5158v5.5763H23.32V6.24438zm-3.5954 8.61891h2.9147c2.2116 0 3.4703-1.1875 3.4703-3.2462 0-2.05846-1.2587-3.23484-3.459-3.23484h-2.926zM35.5059 19.1843c0-2.0814 1.5991-3.3594 4.4345-3.5178l3.266-.1922v-.9161c0-1.3235-.896-2.1152-2.3927-2.1152-1.418 0-2.3026.6785-2.5179 1.7419h-2.3135c.1361-2.1493 1.9732-3.7328 4.922-3.7328 2.8919 0 4.7404 1.527 4.7404 3.9136v8.2005H43.297v-1.9568h-.0564c-.6917 1.3234-2.2003 2.1603-3.7652 2.1603-2.3363 0-3.9695-1.4478-3.9695-3.5854m7.7005-1.0745v-.9388l-2.9374.1809c-1.463.1018-2.2908.7465-2.2908 1.7645 0 1.0405.8619 1.7192 2.1775 1.7192 1.7124 0 3.0507-1.1764 3.0507-2.7258M47.861 26.9435V24.964c.1812.0452.5894.0452.7937.0452 1.134 0 1.7465-.475 2.1206-1.6965 0-.0227.2157-.7239.2157-.7352L46.6815 10.667h2.6535l3.0171 9.6823h.045l3.0171-9.6823h2.5857l-4.4688 12.5211C52.5109 26.0726 51.3314 27 48.859 27c-.2043 0-.8168-.0227-.998-.0565"/></svg>
